# AST/ASF file generated using VICON BodyLanguage
# -----------------------------------------------
:version 1.10
:name VICON
:units
  mass 1.0
  length 0.45
  angle deg
:documentation
   .ast/.asf automatically generated from VICON data using
   VICON BodyBuilder and BodyLanguage model FoxedUp or BRILLIANT.MOD
:root
   order TX TY TZ RX RY RZ
   axis XYZ
   position 0 0 0  
   orientation 0 0 0 
:bonedata
  begin
     id 1 
     name lhipjoint
     direction 0.567149 -0.783011 0.255413 
     length 2.28399 
     axis 0 0 0  XYZ
  end
  begin
     id 2 
     name lfemur
     direction 0.34202 -0.939693 0  
     length 7.34031  
     axis 0 0 20  XYZ
    dof rx ry rz
    limits (-160.0 20.0)
           (-70.0 70.0)
           (-60.0 70.0)
  end
  begin
     id 3 
     name ltibia
     direction 0.34202 -0.939693 0   
     length 6.9833   
     axis 0 0 20   XYZ
    dof rx
    limits (-10.0 170.0)
  end
  begin
     id 4 
     name lfoot
     direction 0.136498 -0.375025 0.91691   
     length 2.33665   
     axis -90 7.62852e-016 20   XYZ
    dof rx rz
    limits (-45.0 90.0)
           (-70.0 20.0)
  end
  begin
     id 5 
     name ltoes
     direction 1.5367e-011 -4.21617e-011 1   
     length 1.15039   
     axis -90 7.62852e-016 20   XYZ
    dof rx
    limits (-90.0 20.0)
  end
  begin
     id 6 
     name rhipjoint
     direction -0.602854 -0.758518 0.247423   
     length 2.35775  
     axis 0 0 0  XYZ 
  end
  begin
     id 7 
     name rfemur
     direction -0.34202 -0.939693 0   
     length 7.43932   
     axis 0 0 -20   XYZ
    dof rx ry rz
    limits (-160.0 20.0)
           (-70.0 70.0)
           (-70.0 60.0)
  end
  begin
     id 8 
     name rtibia
     direction -0.34202 -0.939693 0   
     length 7.11893   
     axis 0 0 -20   XYZ
    dof rx
    limits (-10.0 170.0)
 end
 begin
     id 9 
     name rfoot
     direction -0.131771 -0.362037 0.922803   
     length 2.53019  
     axis -90 -7.62852e-016 -20   XYZ
    dof rx rz
    limits (-45.0 90.0)
           (-20.0 70.0)
  end
  begin
     id 10 
     name rtoes
     direction -1.53733e-011 -4.21932e-011 1   
     length 1.24596   
     axis -90 -7.62852e-016 -20   XYZ
    dof rx
    limits (-90.0 20.0)
  end
  begin
     id 11 
     name lowerback
     direction 0.0235427 0.999023 -0.0374125   
     length 2.21768   
     axis 0 0 0   XYZ
    dof rx ry rz
    limits (-20.0 45.0)
           (-30.0 30.0)
           (-30.0 30.0)
  end
  begin
     id 12 
     name upperback
     direction 0.0302156 0.996818 -0.073759   
     length 2.20352   
     axis 0 0 0   XYZ
    dof rx ry rz
    limits (-20.0 45.0)
           (-30.0 30.0)
           (-30.0 30.0)
  end
  begin
     id 13 
     name thorax
     direction 0.0187169 0.998235 -0.0563532   
     length 2.22103   
     axis 0 0 0   XYZ
    dof rx ry rz
    limits (-20.0 45.0)
           (-30.0 30.0)
           (-30.0 30.0)
  end
  begin
     id 14 
     name lowerneck
     direction -0.119528 0.987423 0.103481   
     length 1.72948   
     axis 0 0 0   XYZ
    dof rx ry rz
    limits (-20.0 45.0)
           (-30.0 30.0)
           (-30.0 30.0)
  end
  begin
     id 15 
     name upperneck
     direction 0.248049 0.963095 -0.104496   
     length 1.74979   
     axis 0 0 0   XYZ
    dof rx ry rz
    limits (-20.0 45.0)
           (-30.0 30.0)
           (-30.0 30.0)
  end
  begin
     id 16
     name head
     direction 0.0903589 0.994284 -0.056876  
     length 1.78268  
     axis 0 0 0   XYZ
    dof rx ry rz
    limits (-20.0 45.0)
           (-30.0 30.0)
           (-30.0 30.0)
  end
  begin
     id 17 
     name lclavicle
     direction 0.946008 0.242039 -0.215608  
     length 3.80783  
     axis 0 0 0   XYZ
    dof ry rz
    limits (-20.0 10.0)
           (0.0 20.0)
  end
  begin
     id 18 
     name lhumerus
     direction 1 -4.48991e-011 -2.25695e-027   
     length 4.83125   
     axis 180 -30 -90   XYZ
    dof rx ry rz
    limits (-60.0 90.0)
           (-90.0 90.0)
           (-90.0 90.0)
  end
  begin
     id 19
     name lradius
     direction 0.999991 0.00366712 -0.00211721   
     length 3.00391   
     axis 180 -30 -90   XYZ
    dof rx
    limits (-10.0 170.0)
  end
  begin
     id 20
     name lwrist
     direction 0.999991 0.00393016 -0.00141978   
     length 1.50195   
     axis -1.00488e-014 90 90   XYZ
    dof ry
    limits (-180.0 0.0)
 end
  begin
     id 21 
     name lhand
     direction 1 -4.49123e-011 2.72098e-026   
     length 1.2717   
     axis -1.73687e-014 90 90   XYZ
    dof rx rz
    limits (-90.0 90.0)
           (-45.0 45.0)
  end
  begin
     id 22 
     name lfingers
     direction 1 -4.48678e-011 5.4479e-026   
     length 1.02528   
     axis -3.47372e-014 90 90   XYZ
    dof rx
    limits (0.0 90.0)
  end
  begin
     id 23
     name lthumb
     direction 0.707107 -6.34851e-011 0.707107   
     length 1.4721   
     axis -90 45 -1.62303e-014   XYZ
    dof rx rz
    limits (-45.0 45.0)
           (-45.0 45.0)
  end
  begin
     id 24 
     name rclavicle
     direction -0.981723 0.189447 -0.0181673   
     length 3.74989  
     axis 0 0 0   XYZ 
    dof ry rz
    limits (-10.0 20.0)
           (-20.0 0.0)
  end
  begin
     id 25 
     name rhumerus
     direction -1 -4.48985e-011 2.38206e-027  
     length 4.61118   
     axis 180 30 90   XYZ
    dof rx ry rz
    limits (-90.0 60.0)
           (-90.0 90.0)
           (-90.0 90.0)
  end
  begin
     id 26 
     name rradius
     direction -1 -4.48977e-011 7.41019e-027   
     length 2.91491   
     axis 180 30 90   XYZ
    dof rx
    limits (-10.0 170.0)
  end
  begin
     id 27 
     name rwrist
     direction -1 -4.48549e-011 1.3624e-026   
     length 1.45745   
     axis -1.00488e-014 -90 -90   XYZ
    dof ry
    limits (-180.0 0.0)
  end
  begin
     id 28
     name rhand
     direction -1 -4.49107e-011 2.72109e-026   
     length 1.30769   
     axis -1.73687e-014 -90 -90   XYZ
    dof rx rz
    limits (-90.0 90.0)
           (-45.0 45.0)
  end
  begin
     id 29
     name rfingers
     direction -1 -4.48919e-011 5.44468e-026   
     length 1.05429   
     axis -3.47372e-014 -90 -90   XYZ
    dof rx
    limits (0.0 90.0)
  end
  begin
     id 30
     name rthumb
     direction -0.707107 -6.35315e-011 0.707107   
     length 1.51376   
     axis -90 -45 1.62303e-014   XYZ
    dof rx rz
    limits (-45.0 45.0)
           (-45.0 45.0)
  end
:hierarchy
  begin
    root lhipjoint rhipjoint lowerback
    lhipjoint lfemur
    lfemur ltibia
    ltibia lfoot
    lfoot ltoes
    rhipjoint rfemur
    rfemur rtibia
    rtibia rfoot
    rfoot rtoes
    lowerback upperback
    upperback thorax
    thorax lowerneck lclavicle rclavicle
    lowerneck upperneck
    upperneck head
    lclavicle lhumerus
    lhumerus lradius
    lradius lwrist
    lwrist lhand lthumb
    lhand lfingers
    rclavicle rhumerus
    rhumerus rradius
    rradius rwrist
    rwrist rhand rthumb
    rhand rfingers
  end

#!OML:ASF X:\für Bonn\!DataBase\2005_08_11_Bastian_Final\c3d\Bastian.ASF
:FULLY-SPECIFIED
:DEGREES
16
root 27.2769 17.274 -3.21885 1063.67 -86.1491 2.73988
lowerback 15.7126 -0.440928 -1.41475
upperback 12.0062 -1.59305 0.879346
thorax 4.05628 -1.29053 1.8824
lowerneck -2.59188 -2.98096 -5.07339
upperneck 16.0973 -4.5048 3.64184
head 5.46432 -2.3771 1.71689
rclavicle -1.82882e-014 7.55382e-015
rhumerus -12.9557 13.5452 -82.0802
rradius 25.5227
rwrist -5.57961
rhand -16.3892 -2.86076
rfingers 7.12502
rthumb 9.82469 -32.6116
lclavicle -1.82882e-014 7.55382e-015
lhumerus -16.2074 -6.665 -272.06
lradius 25.3874
lwrist -340.578
lhand -14.8319 -8.31162
lfingers 7.12502
lthumb 11.3269 21.3625
rfemur -17.3859 -4.28181 17.9789
rtibia 67.5226
rfoot -6.92913 -0.992474
rtoes -7.38683
lfemur 0.297836 2.61011 -23.3018
ltibia 29.6388
lfoot -7.20502 -8.15259
ltoes 1.26356
17
root 27.1538 17.2828 -3.21029 1063.58 -85.9128 2.81216
lowerback 16.0054 -0.471184 -1.35463
upperback 12.1428 -1.65215 1.00269
thorax 4.05973 -1.33211 1.99057
lowerneck -2.59936 -3.03657 -5.14788
upperneck 16.0014 -4.55606 3.57643
head 5.43883 -2.40778 1.70593
rclavicle 1.41137e-014 3.77691e-015
rhumerus -12.3226 13.9201 -81.7278
rradius 25.4517
rwrist -5.78168
rhand -16.5704 -2.92735
rfingers 7.12502
rthumb 9.64987 -32.6863
lclavicle 1.41137e-014 3.77691e-015
lhumerus -15.9166 -7.95909 -271.943
lradius 26.83
lwrist -339.342
lhand -15.0022 -8.54806
lfingers 7.12502
lthumb 11.1627 21.135
rfemur -18.1518 -4.03556 18.0753
rtibia 65.591
rfoot -7.61559 -1.00015
rtoes -7.63963
lfemur 0.968161 2.62398 -23.3196
ltibia 29.2947
lfoot -7.50259 -8.38473
ltoes 0.776831
18
root 27.0316 17.2961 -3.20112 1063.53 -85.6626 2.87391
lowerback 16.2776 -0.499775 -1.28972
upperback 12.299 -1.71007 1.13354
thorax 4.09672 -1.37447 2.10333
lowerneck -2.63892 -3.10331 -5.2195
upperneck 15.8509 -4.61649 3.51039
head 5.40228 -2.44108 1.6935
rclavicle -2.08724e-015 1.59028e-015
rhumerus -11.6559 14.3282 -81.342
rradius 25.4108
rwrist -6.05173
rhand -16.7513 -3.00189
rfingers 7.12502
rthumb 9.47535 -32.7689
lclavicle -2.08724e-015 1.59028e-015
lhumerus -15.5652 -9.07752 -271.862
lradius 28.2543
lwrist -338.375
lhand -15.0549 -8.70652
lfingers 7.12502
lthumb 11.1118 20.9793
rfemur -18.8512 -3.76097 18.1578
rtibia 63.4418
rfoot -8.23626 -1.10747
rtoes -8.22538
lfemur 1.65643 2.63746 -23.3303
ltibia 28.8462
lfoot -7.68628 -8.6403
ltoes 0.620358
19
root 26.91 17.3133 -3.1935 1063.26 -85.3836 3.12761
lowerback 16.5922 -0.522295 -1.22996
upperback 12.4548 -1.76129 1.25658
thorax 4.11189 -1.41374 2.21169
lowerneck -2.66543 -3.17781 -5.29051
upperneck 15.6655 -4.68783 3.45472
head 5.3534 -2.47858 1.684
rclavicle 1.20265e-014 -5.56597e-015
rhumerus -10.9746 14.5139 -80.9473
rradius 25.3306
rwrist -6.10305
rhand -16.8364 -3.0655
rfingers 7.12502
rthumb 9.39317 -32.8362
lclavicle 1.20265e-014 -5.56597e-015
lhumerus -15.2286 -10.0988 -271.824
lradius 29.6878
lwrist -337.595
lhand -15.0783 -8.867
lfingers 7.12502
lthumb 11.0892 20.82
rfemur -19.4154 -3.46731 18.1925
rtibia 61.0974
rfoot -8.85135 -1.31487
rtoes -8.99835
lfemur 2.39772 2.60429 -23.3618
ltibia 28.3273
lfoot -7.86386 -8.85086
ltoes 0.293706
20
root 26.7895 17.3231 -3.18607 1063.3 -85.0807 3.09262
lowerback 16.8919 -0.550935 -1.14405
upperback 12.6201 -1.81767 1.37738
thorax 4.14568 -1.45441 2.30348
lowerneck -2.70915 -3.24853 -5.38123
upperneck 15.4633 -4.76388 3.49048
head 5.30489 -2.5132 1.70583
rclavicle -3.27995e-015 1.07344e-014
rhumerus -10.2874 14.8004 -80.556
rradius 25.2951
rwrist -6.32047
rhand -16.946 -3.15846
rfingers 7.12502
rthumb 9.28742 -32.9339
lclavicle -3.27995e-015 1.07344e-014
lhumerus -14.8865 -11.2104 -271.843
lradius 31.1746
lwrist -336.779
lhand -15.1266 -8.98301
lfingers 7.12502
lthumb 11.0426 20.7065
rfemur -19.8436 -3.17289 18.2279
rtibia 58.5968
rfoot -9.44572 -1.66154
rtoes -9.9507
lfemur 3.11143 2.58716 -23.3642
ltibia 27.7735
lfoot -7.98908 -9.13442
ltoes 0.0587178
21
root 26.6696 17.3256 -3.17983 1062.71 -84.7543 3.65808
lowerback 17.2372 -0.566752 -1.12383
upperback 12.7975 -1.86789 1.49863
thorax 4.17243 -1.49779 2.43363
lowerneck -2.79689 -3.32126 -5.48619
upperneck 15.2727 -4.83794 3.5193
head 5.26775 -2.54735 1.72708
rclavicle 6.16232e-015 7.95139e-016
rhumerus -9.56622 14.9373 -80.1456
rradius 25.2233
rwrist -6.43335
rhand -17.0778 -3.17424
rfingers 7.12502
rthumb 9.16029 -32.9553
lclavicle 6.16232e-015 7.95139e-016
lhumerus -14.5118 -12.1038 -271.872
lradius 32.5913
lwrist -336.261
lhand -15.1161 -9.13863
lfingers 7.12502
lthumb 11.0528 20.5503
rfemur -20.0775 -2.83527 18.1722
rtibia 56.0203
rfoot -10.0074 -2.06844
rtoes -10.3788
lfemur 3.86871 2.55308 -23.4282
ltibia 27.182
lfoot -8.05071 -9.39428
ltoes -0.0313009
22
root 26.5514 17.3312 -3.17377 1062.47 -84.4453 3.88877
lowerback 17.5778 -0.574878 -1.04642
upperback 12.9682 -1.89929 1.60722
thorax 4.19178 -1.52673 2.51627
lowerneck -2.78357 -3.39337 -5.58662
upperneck 14.9836 -4.92715 3.64789
head 5.18577 -2.5831 1.78014
rclavicle -2.16675e-014 8.34896e-015
rhumerus -8.85198 14.9711 -79.7784
rradius 25.1157
rwrist -6.43315
rhand -17.2203 -3.21098
rfingers 7.12502
rthumb 9.02275 -32.998
lclavicle -2.16675e-014 8.34896e-015
lhumerus -14.138 -13.0111 -271.952
lradius 34.0157
lwrist -335.744
lhand -15.1124 -9.31804
lfingers 7.12502
lthumb 11.0564 20.3707
rfemur -20.2628 -2.49061 18.1332
rtibia 53.4341
rfoot -10.5495 -2.49483
rtoes -10.9136
lfemur 4.5887 2.49841 -23.4581
ltibia 26.5979
lfoot -8.07697 -9.62074
ltoes 0.0324648
23
root 26.4336 17.3428 -3.16793 1062.29 -84.137 4.05913
lowerback 17.9136 -0.587322 -0.972236
upperback 13.1493 -1.93796 1.71459
thorax 4.22716 -1.5605 2.60042
lowerneck -2.81555 -3.46331 -5.68943
upperneck 14.6888 -5.00855 3.77123
head 5.10967 -2.61471 1.83157
rclavicle -5.1684e-015 2.38542e-015
rhumerus -8.10578 14.9183 -79.4243
rradius 25.0237
rwrist -6.36271
rhand -17.3943 -3.18243
rfingers 7.12502
rthumb 8.85483 -32.9766
lclavicle -5.1684e-015 2.38542e-015
lhumerus -13.759 -13.813 -272.063
lradius 35.4254
lwrist -335.25
lhand -14.9981 -9.54686
lfingers 7.12502
lthumb 11.1666 20.136
rfemur -20.4391 -2.09309 18.0763
rtibia 50.886
rfoot -11.0316 -2.96757
rtoes -10.7065
lfemur 5.29884 2.49531 -23.4689
ltibia 26.019
lfoot -8.11237 -9.91153
ltoes -0.217973
24
root 26.3174 17.3513 -3.1629 1061.94 -83.7929 4.41098
lowerback 18.2375 -0.58674 -0.913406
upperback 13.3555 -1.96394 1.82217
thorax 4.29778 -1.59057 2.69116
lowerneck -2.84904 -3.54588 -5.77449
upperneck 14.3449 -5.10952 3.92817
head 5.02026 -2.65235 1.88959
rclavicle -2.18663e-015 -2.42517e-014
rhumerus -7.34469 14.7684 -79.0611
rradius 24.9701
rwrist -6.15172
rhand -17.5627 -3.21102
rfingers 7.12502
rthumb 8.69233 -33.0121
lclavicle -2.18663e-015 -2.42517e-014
lhumerus -13.2826 -14.4584 -272.179
lradius 36.6789
lwrist -334.805
lhand -14.6983 -9.94223
lfingers 7.12502
lthumb 11.4558 19.7248
rfemur -20.576 -1.66136 17.9643
rtibia 48.383
rfoot -11.4346 -3.58023
rtoes -10.2874
lfemur 5.98296 2.44497 -23.5103
ltibia 25.4538
lfoot -8.09022 -10.1871
ltoes -0.21881
25
root 26.2025 17.3561 -3.15854 1061.61 -83.4487 4.73456
lowerback 18.5972 -0.597858 -0.875703
upperback 13.5417 -2.00701 1.93996
thorax 4.33133 -1.63066 2.80923
lowerneck -2.9991 -3.63535 -5.79727
upperneck 14.2084 -5.20272 3.89367
head 5.00843 -2.69497 1.875
rclavicle -9.54166e-015 9.14409e-015
rhumerus -6.56594 14.6406 -78.6987
rradius 24.8428
rwrist -5.96898
rhand -17.7801 -3.15931
rfingers 7.12502
rthumb 8.48251 -32.9689
lclavicle -9.54166e-015 9.14409e-015
lhumerus -12.8195 -14.8929 -272.286
lradius 37.7772
lwrist -334.587
lhand -14.2571 -10.2931
lfingers 7.12502
lthumb 11.8812 19.3498
rfemur -20.6807 -1.16188 17.8294
rtibia 45.9327
rfoot -11.7238 -4.26445
rtoes -9.71468
lfemur 6.6306 2.44157 -23.5386
ltibia 24.9442
lfoot -8.08087 -10.4746
ltoes -0.712699
26
root 26.0889 17.358 -3.15482 1061.14 -83.097 5.21181
lowerback 18.9604 -0.593031 -0.827047
upperback 13.7309 -2.02717 2.0392
thorax 4.36545 -1.65757 2.89865
lowerneck -3.0648 -3.73768 -5.80623
upperneck 14.0205 -5.32252 3.89556
head 4.96827 -2.74874 1.86981
rclavicle -1.45113e-014 3.18055e-014
rhumerus -5.86423 14.5058 -78.3658
rradius 24.7592
rwrist -5.80848
rhand -18.0762 -3.13458
rfingers 7.12502
rthumb 8.1968 -32.9556
lclavicle -1.45113e-014 3.18055e-014
lhumerus -12.3781 -15.5016 -272.412
lradius 38.8414
lwrist -334.326
lhand -13.9759 -10.5581
lfingers 7.12502
lthumb 12.1524 19.0689
rfemur -20.7234 -0.578897 17.6546
rtibia 43.5328
rfoot -11.8724 -5.07789
rtoes -9.25536
lfemur 7.20215 2.41109 -23.5889
ltibia 24.5861
lfoot -8.11332 -10.7776
ltoes -0.740426
27
root 25.9777 17.3578 -3.15134 1060.74 -82.7534 5.58601
lowerback 19.3861 -0.570962 -0.763696
upperback 13.9238 -2.02479 2.15514
thorax 4.37249 -1.67386 2.99689
lowerneck -3.08943 -3.84389 -5.83752
upperneck 13.7211 -5.44946 3.95252
head 4.88924 -2.80338 1.88646
rclavicle 2.54444e-014 -4.29375e-014
rhumerus -5.13662 14.4323 -77.995
rradius 24.6214
rwrist -5.68989
rhand -18.4123 -3.09167
rfingers 7.12502
rthumb 7.87245 -32.9251
lclavicle 2.54444e-014 -4.29375e-014
lhumerus -11.9146 -16.0149 -272.506
lradius 39.8674
lwrist -334.152
lhand -13.8703 -10.7528
lfingers 7.12502
lthumb 12.2542 18.8682
rfemur -20.6818 0.107666 17.4745
rtibia 41.2092
rfoot -11.9564 -6.03058
rtoes -8.5632
lfemur 7.70723 2.35686 -23.634
ltibia 24.4184
lfoot -8.20787 -11.0315
ltoes -0.802362
28
root 25.867 17.3546 -3.14773 1060.34 -82.4004 5.96875
lowerback 19.7958 -0.562887 -0.693694
upperback 14.1262 -2.04052 2.26097
thorax 4.4006 -1.69915 3.08279
lowerneck -3.06522 -3.93606 -5.88613
upperneck 13.3384 -5.55682 4.02605
head 4.77656 -2.84859 1.91385
rclavicle -7.15625e-015 4.77083e-015
rhumerus -4.39335 14.3503 -77.6314
rradius 24.4561
rwrist -5.55926
rhand -18.7618 -3.05279
rfingers 7.12502
rthumb 7.53507 -32.8986
lclavicle -7.15625e-015 4.77083e-015
lhumerus -11.4263 -16.5015 -272.652
lradius 40.848
lwrist -333.962
lhand -13.8637 -10.9848
lfingers 7.12502
lthumb 12.2605 18.6358
rfemur -20.5989 0.83666 17.2755
rtibia 39.0085
rfoot -12.0482 -7.07708
rtoes -7.83661
lfemur 8.10935 2.30196 -23.68
ltibia 24.4346
lfoot -8.32812 -11.3275
ltoes -0.657481
